<?xml version="1.0" encoding="UTF-8"?>
<svg version="1.1" viewBox="0 0 512 512" xml:space="preserve" xmlns="http://www.w3.org/2000/svg"><rect transform="matrix(.95 .31 -.31 .95 0 0)" x="300" y="-18" width="179" height="269" ry="11" style="fill:#fff;stroke-width:12;stroke:#a1a1aa"/><path transform="matrix(.95 .31 -.31 .95 0 0)" d="m350 53h36q9.7 0 18 2.2 7.9 2 13 6.3 5.7 4.1 8.8 11 3 6.3 3 15t-3.2 15q-3 6.3-8.8 11-5.6 4.1-14 6.3-7.9 2.2-18 2.2h-23v59h-13zm13 57h22q15 0 23-5.9 7.9-5.9 7.9-17 0-12-8.2-17-8.1-5.6-23-5.6h-22z" style="fill:#ec6607;stroke-width:3.4" aria-label="P"/><rect transform="rotate(-9)" x="35" y="174" width="179" height="269" ry="11" style="fill:#fff;stroke-width:12;stroke:#a1a1aa"/><path transform="matrix(.99 -.16 .16 .99 0 0)" d="m153 266q-4.1-5.7-11-9.1-6.5-3.6-16-3.6-4.7 0-9.5 1.4t-8.8 4.5q-3.9 2.9-6.5 7.4-2.3 4.5-2.3 11t2.3 10q2.3 3.9 6.1 6.8 3.9 2.7 8.8 4.5 5 1.8 10 3.6 6.6 2.2 13 4.7 6.8 2.5 12 6.6 5.4 3.9 8.8 10t3.4 16q0 9.5-3.8 16-3.6 6.8-9.5 11-5.7 4.5-13 6.6-7.4 2.2-15 2.2-5.7 0-11-1.3-5.7-1.1-11-3.4-5.2-2.3-9.7-5.9t-7.9-8.2l11-8.2q4.1 6.8 11 11 7.5 4.5 18 4.5 4.8 0 9.9-1.4 5-1.6 9-4.7 4.1-3.2 6.6-7.7 2.7-4.7 2.7-11 0-6.6-2.7-11-2.5-4.5-6.8-7.4-4.3-3-9.9-5t-12-3.9q-6.3-2-12-4.5-6.1-2.5-11-6.5-4.8-4.1-7.9-10-2.9-5.9-2.9-15t3.6-16q3.8-6.6 9.7-11 5.9-4.3 13-6.3t14-2q13 0 22 4.7 9.1 4.5 14 11z" style="fill:#0e7599;stroke-width:3.4" aria-label="S"/></svg>
